<svg xmlns="http://www.w3.org/2000/svg" viewBox="0 0 23.31 23.31"><defs><style>.cls-1{fill:#f1e44a;}.cls-2{fill:#1c4f7e;}</style></defs><g id="Layer_2" data-name="Layer 2"><path class="cls-1" d="M23.31,11.65A11.66,11.66,0,1,0,9.83,23.17V15h-3V11.65h3V9.09c0-2.92,1.74-4.54,4.4-4.54a17.68,17.68,0,0,1,2.61.23V7.65H15.37a1.69,1.69,0,0,0-1.9,1.82v2.18h3.24L16.19,15H13.47v8.15A11.67,11.67,0,0,0,23.31,11.65Z"/><path class="cls-2" d="M16.19,15l.52-3.37H13.47V9.47a1.69,1.69,0,0,1,1.9-1.82h1.47V4.78a17.68,17.68,0,0,0-2.61-.23c-2.66,0-4.4,1.62-4.4,4.54v2.56h-3V15h3v8.15a11.9,11.9,0,0,0,3.64,0V15Z"/></g></svg>