<svg xmlns="http://www.w3.org/2000/svg" viewBox="0 0 23.31 23.31"><defs><style>.cls-1{fill:#f1e44a;}.cls-2{fill:#1c4f7e;}</style></defs><g id="Layer_2" data-name="Layer 2"><circle class="cls-1" cx="11.65" cy="11.65" r="11.65"/><path class="cls-2" d="M15.27,7.24a.81.81,0,1,0,.8.81A.8.8,0,0,0,15.27,7.24Z"/><path class="cls-2" d="M11.71,8.27a3.37,3.37,0,1,0,3.36,3.37A3.37,3.37,0,0,0,11.71,8.27Zm0,5.52a2.16,2.16,0,1,1,2.15-2.15A2.16,2.16,0,0,1,11.71,13.79Z"/><path class="cls-2" d="M14.38,18.47H8.93a4.11,4.11,0,0,1-4.11-4.11V8.91a4.11,4.11,0,0,1,4.11-4.1h5.45a4.11,4.11,0,0,1,4.11,4.1v5.45A4.12,4.12,0,0,1,14.38,18.47ZM8.93,6.09A2.82,2.82,0,0,0,6.11,8.91v5.45a2.82,2.82,0,0,0,2.82,2.82h5.45a2.82,2.82,0,0,0,2.82-2.82V8.91a2.82,2.82,0,0,0-2.82-2.82Z"/></g></svg>