<svg id="Layer_1" data-name="Layer 1" xmlns="http://www.w3.org/2000/svg" xmlns:xlink="http://www.w3.org/1999/xlink" viewBox="0 0 110.59 18.91"><defs><style>.cls-1{fill:url(#Degradado_sin_nombre_104);}.cls-2{font-size:11.54px;fill:#fff;font-family:MADETOMMY, MADE TOMMY;}.cls-3{letter-spacing:0.01em;}.cls-4{letter-spacing:-0.01em;}.cls-5{letter-spacing:0em;}.cls-6{letter-spacing:0.01em;}</style><linearGradient id="Degradado_sin_nombre_104" x1="1.76" y1="2.9" x2="14.86" y2="16.01" gradientUnits="userSpaceOnUse"><stop offset="0" stop-color="#fff"/><stop offset="0.51" stop-color="#fdfdfd"/><stop offset="0.7" stop-color="#f6f6f6"/><stop offset="0.83" stop-color="#ebebeb"/><stop offset="0.94" stop-color="#dadada"/><stop offset="1" stop-color="#ccc"/></linearGradient></defs><path class="cls-1" d="M9.26,0A9,9,0,0,0,0,8.72a8.51,8.51,0,0,0,3.35,6.71v3.48l3.29-1.83a9.81,9.81,0,0,0,2.62.35,9,9,0,0,0,9.27-8.71A9,9,0,0,0,9.26,0Zm1,11.73L7.87,9.25,3.25,11.73l5.1-5.28,2.39,2.47,4.57-2.47Z"/><text class="cls-2" transform="translate(23.24 13.34)"><tspan class="cls-3">m.me/</tspan><tspan class="cls-4" x="34.74" y="0">w</tspan><tspan class="cls-5" x="43.56" y="0">e</tspan><tspan class="cls-3" x="50.17" y="0">ta</tspan><tspan x="60.83" y="0">p</tspan><tspan class="cls-6" x="68.07" y="0">.ph</tspan></text></svg>