<svg xmlns="http://www.w3.org/2000/svg" viewBox="0 0 23.31 23.31"><defs><style>.cls-1{fill:#f1e44a;}.cls-2{fill:#1c4f7e;}</style></defs><g id="Layer_2" data-name="Layer 2"><circle class="cls-1" cx="11.65" cy="11.65" r="11.65"/><path class="cls-2" d="M18.09,7.66A5.69,5.69,0,0,1,16.81,8c.2,0,.51-.41.63-.56a2.59,2.59,0,0,0,.43-.78.06.06,0,0,0,0-.07s0,0-.07,0a6.2,6.2,0,0,1-1.52.58.09.09,0,0,1-.1,0L16,7.05a2.79,2.79,0,0,0-.74-.46,2.74,2.74,0,0,0-3.07.83,2.91,2.91,0,0,0-.52,1,2.67,2.67,0,0,0,0,1.09c0,.07,0,.07-.06.07A8.2,8.2,0,0,1,6.39,7c-.06-.07-.1-.07-.15,0a2.66,2.66,0,0,0,.46,3.13,3,3,0,0,0,.32.29,2.82,2.82,0,0,1-1-.29c-.06,0-.1,0-.1.06a1,1,0,0,0,0,.3,2.67,2.67,0,0,0,1.65,2.14,1.91,1.91,0,0,0,.34.1,3.33,3.33,0,0,1-1,0c-.08,0-.1,0-.08.09a2.78,2.78,0,0,0,2.09,1.74l.28,0,0,0c-.23.36-1,.62-1.42.75a5.12,5.12,0,0,1-2.16.28c-.12,0-.14,0-.17,0s0,0,0,.08.3.18.45.26a6.76,6.76,0,0,0,1.45.58,7.69,7.69,0,0,0,7.46-1.74A7.85,7.85,0,0,0,16.91,9.1c0-.08.09-.13.15-.17a5.13,5.13,0,0,0,1-1.06.34.34,0,0,0,.06-.2h0S18.14,7.64,18.09,7.66Z"/></g></svg>