<svg xmlns="http://www.w3.org/2000/svg" viewBox="0 0 15.58 20.04"><defs><style>.cls-1{fill:#fff;}</style></defs><g id="Layer_2" data-name="Layer 2"><path class="cls-1" d="M7.79,20h0a.66.66,0,0,1-.51-.23C7,19.49,0,11.93,0,7.79a7.79,7.79,0,0,1,15.58,0c0,4.14-7,11.7-7.28,12A.68.68,0,0,1,7.79,20Zm0-18.65a6.41,6.41,0,0,0-6.4,6.4c0,2.75,4.23,8.07,6.4,10.51,2.17-2.44,6.39-7.76,6.39-10.51A6.4,6.4,0,0,0,7.79,1.39Z"/><path class="cls-1" d="M7.79,11A3.51,3.51,0,1,1,11.3,7.45,3.52,3.52,0,0,1,7.79,11Zm0-5.62A2.11,2.11,0,1,0,9.9,7.45,2.1,2.1,0,0,0,7.79,5.34Z"/></g></svg>