<svg xmlns="http://www.w3.org/2000/svg" viewBox="0 0 16.15 12.69"><defs><style>.cls-1{fill:#fff;}</style></defs><g id="Layer_2" data-name="Layer 2"><path class="cls-1" d="M13.82,0H2.33A2.34,2.34,0,0,0,0,2.33v8a2.34,2.34,0,0,0,2.33,2.33H13.82a2.33,2.33,0,0,0,2.33-2.33v-8A2.33,2.33,0,0,0,13.82,0Zm0,1.11a1.26,1.26,0,0,1,.28,0L9.25,6.65a1.59,1.59,0,0,1-1.17.53A1.61,1.61,0,0,1,6.9,6.65L2.06,1.15a1.17,1.17,0,0,1,.27,0ZM15,10.36a1.22,1.22,0,0,1-1.22,1.21H2.33a1.22,1.22,0,0,1-1.22-1.21v-8a1.19,1.19,0,0,1,.1-.46L6.07,7.38a2.67,2.67,0,0,0,4,0L15,1.87a1.39,1.39,0,0,1,.09.46Z"/></g></svg>