<svg xmlns="http://www.w3.org/2000/svg" viewBox="0 0 20.62 19.17"><defs><style>.cls-1{fill:#fff;fill-rule:evenodd;}</style></defs><g id="Layer_2" data-name="Layer 2"><path class="cls-1" d="M18.18,12.66c-.88-.52-2-1.1-3-.68-.8.32-1.3,1.56-1.81,2.19a.74.74,0,0,1-1,.21A13.77,13.77,0,0,1,5.47,8.49a.83.83,0,0,1,.11-1.15,4.72,4.72,0,0,0,1.25-2,4.52,4.52,0,0,0-.56-2.4C5.85,2,5.39.74,4.49.24A2.4,2.4,0,0,0,1.86.63,5.33,5.33,0,0,0,0,4.87,6.09,6.09,0,0,0,.17,6.22a11.08,11.08,0,0,0,1.29,3,22.63,22.63,0,0,0,1.35,2.05,21,21,0,0,0,5.84,5.43,18.47,18.47,0,0,0,3.65,1.73,8.16,8.16,0,0,0,4.25.67,5.18,5.18,0,0,0,3.85-2.86,2.45,2.45,0,0,0,.17-1.46C20.35,13.75,19,13.15,18.18,12.66Z"/></g></svg>